<?xml version="1.0" encoding="utf-8"?>
<!-- Generator: Adobe Illustrator 14.0.0, SVG Export Plug-In . SVG Version: 6.00 Build 43363)  -->
<!DOCTYPE svg PUBLIC "-//W3C//DTD SVG 1.0//EN" "http://www.w3.org/TR/2001/REC-SVG-20010904/DTD/svg10.dtd">
<svg version="1.0" id="Ebene_1" xmlns="http://www.w3.org/2000/svg" xmlns:xlink="http://www.w3.org/1999/xlink" x="0px" y="0px"
	 width="2048px" height="1536px" viewBox="0 0 2048 1536" enable-background="new 0 0 2048 1536" xml:space="preserve">
<g id="g9178" transform="translate(2073.8799,-1321.062)">
	
		<linearGradient id="rect5062-20_1_" gradientUnits="userSpaceOnUse" x1="-11352.5215" y1="12697.3809" x2="-11352.5215" y2="11174.0654" gradientTransform="matrix(1 0 0 -1 10303.2363 14027.2422)">
		<stop  offset="0" style="stop-color:#51BCC3"/>
		<stop  offset="1" style="stop-color:#015252"/>
	</linearGradient>
	<rect id="rect5062-20" x="-2073.286" y="1321.06" fill="url(#rect5062-20_1_)" width="2048" height="1536"/>
	
		<radialGradient id="path4270-5-66_1_" cx="-9425.5977" cy="-5395.9961" r="1023.9998" gradientTransform="matrix(2.250953e-008 1.0022 1.1212 -2.206774e-006 4994.6416 11517.1309)" gradientUnits="userSpaceOnUse">
		<stop  offset="0" style="stop-color:#6FC6D9"/>
		<stop  offset="1" style="stop-color:#6FC6D9;stop-opacity:0"/>
	</radialGradient>
	
		<path id="path4270-5-66" opacity="0.1814" fill="url(#path4270-5-66_1_)" enable-background="new" 
		d="M-2073.286,1321.06v120.969l1009.156,620.406l3.906,3.563l-1013.063-493.531v20.688l1013.469,473.219l1.5,1.406l-1014.969-379.531
		v103.594l1016.125,277l0.625,0.563l-1016.75-205.656v48.625l1017.094,157.344l0.625,0.594l-1017.719-50v135.625l1017.656-85
		l-0.219,0.25l-1017.438,136.719v38.531l1017.281-175.031l-0.469,0.594l-1016.813,266.906v126.344l1016-392.281l-0.813,1.031
		l-1015.188,491.969v120.813l1013.844-611.125l-4.094,5.094l-957.406,776.313h241.656l695-750.5l-603.844,750.5h122.719
		l499.875-770.75l12.125-13.094l0.75,1.063l-360.188,782.781h154l206.719-782.031l0.563,0.813l-91.469,781.219h92.094v-780.344
		l2.782,3.938l213.594,776.406h211.594l-413.406-759.781l537.625,759.781h132.313l-677.313-773.344l-7.188-13.188l2,7.281l-2-2.281
		v-5l-0.531,4.406l-0.469-0.563l1-3.844l-1.5,3.281l-0.75-0.844l2.25-2.438l-2.563,2.063l-0.313-0.344l2.875-1.719l-3.063,1.5
		l-0.219-0.25l3.281-1.25l-3.563,0.938l-0.25-0.281l3.813-0.656l-3.906,0.531l-0.156-0.188l4.063-0.344l-4.094-0.188l0.469-0.375
		l3.625,0.563l-3.438-0.688l0.25-0.188l3.188,0.875l-2.906-1.094l0.219-0.156l2.688,1.25l-2.625-1.281l0.25-0.188l2.375,1.469
		l-2.094-1.688l0.531-0.406l1.563,2.094l-1.406-2.188l0.219-0.156l1.188,2.344l-0.688-2.719l0.344-0.25l0.344,2.969l0.406-3.531
		l0.5-0.375c-0.075,0.324-0.906,3.906-0.906,3.906l1.906-4.656l2.157-1.563l-4.063,6.219l5.938-7.625l1004-741.844h-248.594
		l-747.219,731.344l570.25-731.344h-96.094l-480.563,737.625l-4.75,4.656l305.406-742.281h-141.375
		c-35.582,180.67-159.699,717.9-165.719,743.938l-0.719,0.688l88.563-744.625h-176.532l86.969,745.625l-0.438,0.406
		l-189.156-746.031h-186.719l375.313,746.594l-0.25,0.25l-475.969-746.844h-79.031l554.844,747l-0.563,0.531l-11.594-9.375
		l-627.438-738.156h-177.375l782.813,720.375l-891.094-720.375H-2073.286z M-1050.942,2070.529L-25.286,1594.81v-47.281
		L-1050.942,2070.529z M-1050.942,2070.529l1025.657-269.031v-101.563L-1050.942,2070.529z M-1050.942,2070.529l1025.657,43.219
		v-150.25L-1050.942,2070.529z M-1050.942,2070.529l1025.657,198.688v-14.688L-1050.942,2070.529z M-1050.942,2070.529
		l1025.657,408.156v-51.063L-1050.942,2070.529z M-1050.942,2070.529l1025.657,604.125v-74.156L-1050.942,2070.529z
		 M-1050.942,2070.529l829.25,786.531h169.813L-1050.942,2070.529z M-1060.099,2064.904l6.469,3.969l-0.219,0.25l-4.563-2.219
		L-1060.099,2064.904z M-1058.192,2067.154l4.281,2l-0.188,0.188l-3.25-1.219L-1058.192,2067.154z M-1056.63,2068.966l2.281,0.625
		l-0.219,0.219l-1.656-0.344L-1056.63,2068.966z M-1055.974,2069.748l1.25,0.188l-0.375,0.375h-0.406L-1055.974,2069.748z
		 M-1055.067,2070.873l0.125,0.188l-0.781,0.125l0.156-0.281l0.5-0.029V2070.873z M-1054.849,2071.185l0.219,0.313l-1.594,0.406
		l0.344-0.531L-1054.849,2071.185z M-1054.38,2071.841l0.188,0.281l-3.125,1.5l0.531-0.844L-1054.38,2071.841z M-1054.005,2072.373
		l0.281,0.406l-6.438,5.219l2.031-3.125L-1054.005,2072.373z"/>
</g>
</svg>
