<?xml version="1.0" encoding="utf-8"?>
<!-- Generator: Adobe Illustrator 14.0.0, SVG Export Plug-In . SVG Version: 6.00 Build 43363)  -->
<!DOCTYPE svg PUBLIC "-//W3C//DTD SVG 1.0//EN" "http://www.w3.org/TR/2001/REC-SVG-20010904/DTD/svg10.dtd">
<svg version="1.0" id="Ebene_1" xmlns="http://www.w3.org/2000/svg" xmlns:xlink="http://www.w3.org/1999/xlink" x="0px" y="0px"
	 width="2048px" height="1536px" viewBox="0 0 2048 1536" enable-background="new 0 0 2048 1536" xml:space="preserve">
<g id="g9170" transform="translate(-2160,262.85714)">
	
		<linearGradient id="rect6076-3_1_" gradientUnits="userSpaceOnUse" x1="-4999.6416" y1="11102.9873" x2="-4999.6416" y2="9609.8877" gradientTransform="matrix(1 0 0 -1 8183.6421 10859.4033)">
		<stop  offset="0" style="stop-color:#E63D3D"/>
		<stop  offset="1" style="stop-color:#521011"/>
	</linearGradient>
	<rect id="rect6076-3" x="2160" y="-262.859" fill="url(#rect6076-3_1_)" width="2048" height="1536"/>
	
		<radialGradient id="path4270-5-2_1_" cx="-5191.7134" cy="-5089.9688" r="1024.0005" gradientTransform="matrix(2.250953e-008 1.0022 1.1212 -2.206774e-006 8884.8105 5689.8936)" gradientUnits="userSpaceOnUse">
		<stop  offset="0" style="stop-color:#E42522"/>
		<stop  offset="1" style="stop-color:#E42522;stop-opacity:0"/>
	</radialGradient>
	
		<path id="path4270-5-2" opacity="0.2743" fill="url(#path4270-5-2_1_)" enable-background="new" 
		d="M2160-262.859v120.969l1009.156,620.408l3.906,3.563L2160-11.451V9.237l1013.469,473.219l1.5,1.406L2160,104.33v103.594
		l1016.125,277l0.625,0.563L2160,279.83v48.625l1017.094,157.344l0.625,0.594l-1017.719-50v135.625l1017.656-85l-0.219,0.25
		L2160,623.987v38.531l1017.281-175.031l-0.469,0.594L2160,754.987V881.33l1016-392.281l-0.813,1.031L2160,982.049v120.813
		l1013.844-611.125l-4.094,5.094l-957.406,776.313H2454l695-750.5l-603.844,750.5h122.719l499.875-770.75l12.125-13.094l0.75,1.063
		l-360.188,782.781h154l206.719-782.031l0.563,0.813l-91.469,781.219h92.094V492.799l2.781,3.938l213.594,776.406h211.594
		l-413.406-759.781l537.625,759.781h132.313l-677.313-773.344l-7.188-13.188l2,7.281l-2-2.281v-5l-0.531,4.406l-0.469-0.563l1-3.844
		l-1.5,3.281l-0.75-0.844l2.25-2.438l-2.563,2.063l-0.313-0.344l2.875-1.719l-3.063,1.5l-0.219-0.25l3.281-1.25l-3.563,0.938
		l-0.25-0.281l3.813-0.656l-3.906,0.531l-0.156-0.188l4.063-0.344l-4.094-0.188l0.469-0.375l3.625,0.563l-3.438-0.688l0.25-0.188
		l3.188,0.875l-2.906-1.094l0.219-0.156l2.688,1.25l-2.625-1.281l0.25-0.188l2.375,1.469l-2.094-1.688l0.531-0.406l1.563,2.094
		l-1.406-2.188l0.219-0.156l1.188,2.344l-0.688-2.719l0.344-0.25l0.344,2.969l0.406-3.531l0.5-0.375
		c-0.076,0.324-0.906,3.906-0.906,3.906l1.906-4.656l2.157-1.563l-4.063,6.219l5.938-7.625l1004-741.844h-248.594l-747.219,731.344
		l570.25-731.344h-96.094l-480.563,737.625l-4.75,4.656l305.406-742.281h-141.375c-35.582,180.668-159.701,717.898-165.719,743.938
		l-0.719,0.688l88.563-744.625h-176.532l86.969,745.625l-0.438,0.406l-189.156-746.031h-186.719l375.313,746.594l-0.25,0.25
		l-475.969-746.844h-79.031l554.844,747l-0.563,0.531l-11.594-9.375l-627.438-738.156h-177.375l782.813,720.375L2255.25-262.857
		H2160V-262.859z M3182.344,486.612L4208,10.893v-47.281L3182.344,486.612z M3182.344,486.612L4208,217.58V116.018L3182.344,486.612
		z M3182.344,486.612L4208,529.83V379.58L3182.344,486.612z M3182.344,486.612L4208,685.299v-14.688L3182.344,486.612z
		 M3182.344,486.612L4208,894.768v-51.063L3182.344,486.612z M3182.344,486.612L4208,1090.737v-74.156L3182.344,486.612z
		 M3182.344,486.612l829.25,786.531h169.813L3182.344,486.612z M3173.188,480.987l6.469,3.969l-0.219,0.25l-4.563-2.219
		L3173.188,480.987z M3175.094,483.237l4.281,2l-0.188,0.188l-3.25-1.219L3175.094,483.237z M3176.656,485.049l2.281,0.625
		l-0.219,0.219l-1.656-0.344L3176.656,485.049z M3177.313,485.83l1.25,0.188l-0.375,0.375h-0.406L3177.313,485.83z
		 M3178.219,486.955l0.125,0.188l-0.781,0.125l0.156-0.281L3178.219,486.955z M3178.438,487.268l0.219,0.313l-1.594,0.406
		l0.344-0.531L3178.438,487.268z M3178.906,487.924l0.188,0.281l-3.125,1.5l0.531-0.844L3178.906,487.924z M3179.281,488.455
		l0.281,0.406l-6.438,5.219l2.031-3.125L3179.281,488.455z"/>
</g>
</svg>
